<?xml version="1.0" encoding="UTF-8" standalone="no"?>
<!-- Created with Inkscape (http://www.inkscape.org/) -->

<svg
   xmlns:dc="http://purl.org/dc/elements/1.1/"
   xmlns:cc="http://creativecommons.org/ns#"
   xmlns:rdf="http://www.w3.org/1999/02/22-rdf-syntax-ns#"
   xmlns:svg="http://www.w3.org/2000/svg"
   xmlns="http://www.w3.org/2000/svg"
   xmlns:xlink="http://www.w3.org/1999/xlink"
   xmlns:sodipodi="http://sodipodi.sourceforge.net/DTD/sodipodi-0.dtd"
   xmlns:inkscape="http://www.inkscape.org/namespaces/inkscape"
   width="470"
   height="220"
   viewBox="0 0 124.35416 58.208335"
   version="1.1"
   id="svg4600"
   inkscape:version="0.92.1 r"
   sodipodi:docname="logo.svg">
  <defs
     id="defs4594">
    <linearGradient
       inkscape:collect="always"
       xlink:href="#linearGradient4554"
       id="linearGradient4740"
       gradientUnits="userSpaceOnUse"
       gradientTransform="matrix(0.09126739,0,0,0.09126739,4.951502,223.64503)"
       x1="312.51559"
       y1="461.96957"
       x2="461.54276"
       y2="774.13226"
       spreadMethod="reflect" />
    <linearGradient
       id="linearGradient4554"
       inkscape:collect="always">
      <stop
         id="stop4550"
         offset="0"
         style="stop-color:#452e36;stop-opacity:1" />
      <stop
         id="stop4552"
         offset="1"
         style="stop-color:#85beb7;stop-opacity:1" />
    </linearGradient>
  </defs>
  <sodipodi:namedview
     id="base"
     pagecolor="#ffffff"
     bordercolor="#666666"
     borderopacity="1.0"
     inkscape:pageopacity="0.0"
     inkscape:pageshadow="2"
     inkscape:zoom="0.98994949"
     inkscape:cx="78.204316"
     inkscape:cy="161.2667"
     inkscape:document-units="mm"
     inkscape:current-layer="layer1"
     showgrid="false"
     inkscape:showpageshadow="false"
     units="px"
     inkscape:window-width="1920"
     inkscape:window-height="1031"
     inkscape:window-x="0"
     inkscape:window-y="25"
     inkscape:window-maximized="1" />
  <metadata
     id="metadata4597">
    <rdf:RDF>
      <cc:Work
         rdf:about="">
        <dc:format>image/svg+xml</dc:format>
        <dc:type
           rdf:resource="http://purl.org/dc/dcmitype/StillImage" />
        <dc:title></dc:title>
      </cc:Work>
    </rdf:RDF>
  </metadata>
  <g
     inkscape:label="Calque 1"
     inkscape:groupmode="layer"
     id="layer1"
     transform="translate(0,-238.79165)">
    <path
       inkscape:connector-curvature="0"
       id="path4730"
       d="m 53.923671,245.38572 c -0.188529,-0.008 -0.396439,0.13691 -0.307478,0.5341 1.9e-5,7e-5 -1.1e-5,1.2e-4 0,2.5e-4 -0.141422,0.88689 0.160689,2.8577 2.031939,5.64281 2.4891,3.70471 4.30843,3.24756 4.274511,4.46746 -0.0626,0.19953 -0.146042,0.43535 -0.25218,0.69533 -4.2e-5,1e-4 -2.51e-4,1.3e-4 -2.51e-4,2.5e-4 -0.52377,0.88274 -1.698419,2.55248 -3.853231,4.20029 -3.1346,2.39704 -13.921229,5.34721 -18.807504,6.49963 -4.88628,1.15242 -12.75959,2.4357 -13.829052,7.83648 -0.91579,4.62474 0.984257,6.87893 1.0097,6.90887 -1.90705,0.89496 -12.632229,4.90336 -17.873257,7.3567 -1.809757,1.37562 4.073739,-0.44815 12.706289,-3.60718 -0.0036,-0.16327 -0.02752,-0.33446 -0.09045,-0.48889 0,0 0.159393,0.0682 0.240873,0.43358 0.529222,-0.19377 1.101372,-0.40498 1.657107,-0.60956 0.04108,-0.24544 0.06989,-0.62199 -0.05653,-0.93228 0,0 0.269829,0.11341 0.286836,0.84748 0.623658,-0.22976 1.260061,-0.46477 1.910515,-0.70566 0.06987,-0.18415 0.225235,-0.6933 -0.03367,-1.10359 0,0 0.455195,0.12516 0.444385,0.9512 0.588592,-0.21827 1.183367,-0.43924 1.80458,-0.67124 0.0054,0.007 0.08842,-0.0429 0.09364,-0.0364 0.08174,-0.0706 0.232206,-0.26242 0.09783,-0.68477 -0.161197,-0.50661 -0.414191,-0.66826 -0.414646,-0.66854 2.51e-4,10e-6 0.02758,0.002 0.0526,0.004 0.113986,0.01 0.439118,0.0622 0.684768,0.3645 0.10382,0.12779 0.173559,0.31121 0.204003,0.51124 0.0029,0.0674 5.03e-4,0.20501 -0.04842,0.36917 -0.04913,0.16376 -0.06794,0.22809 -0.02581,0.27258 -10e-4,0.003 -0.002,0.007 -0.0034,0.0106 0.0019,-0.002 0.0043,-0.005 0.0061,-0.008 0.01727,0.0168 0.04302,0.0312 0.08087,0.047 0.138295,0.0576 3.141753,0.40225 6.56428,-0.95046 0.132916,-0.0525 0.238932,-0.0963 0.364752,-0.14649 1.523468,-0.55818 2.664857,-1.07835 3.355996,-1.41697 0.522171,-0.24086 0.744739,-0.35984 0.744739,-0.35984 0,0 -0.352219,0.47902 -1.318165,1.11195 -0.464897,0.28726 -1.084358,0.62297 -1.925016,1.00675 -0.170582,0.0779 -0.342455,0.15105 -0.514924,0.22072 -0.174355,0.0681 -0.355174,0.1359 -0.544425,0.20302 -0.623976,0.22131 -1.237464,0.39364 -1.824245,0.52968 -0.23948,0.0548 -0.47216,0.10221 -0.699514,0.14526 -0.0033,5.3e-4 -0.0061,7.9e-4 -0.0091,0.002 -1.223677,0.2311 -2.243329,0.30327 -2.742755,0.32493 -0.166894,0.007 -0.275698,0.009 -0.314609,0.009 -0.02431,0 -0.06345,0.003 -0.112326,0.009 -0.418184,0.008 -0.665104,-0.004 -0.665104,-0.004 0,0 -0.02562,0.0146 -0.02999,0.0568 h -7.67e-4 c 3.7e-4,2.5e-4 2.5e-4,2.6e-4 7.67e-4,5.3e-4 -0.0033,0.0343 0.0069,0.0861 0.05776,0.16591 0.07588,0.11925 0.434592,0.26604 0.866651,0.35664 1.467508,0.65362 3.3688,0.74452 6.363467,0.44168 3.737586,-0.37795 8.385503,-2.57042 9.191273,-2.96151 0.0568,-0.0255 0.113578,-0.0503 0.170328,-0.076 0.01889,0.0183 0.17988,0.10881 1.51725,0.50215 1.5673,0.46097 4.240962,1.42892 6.22312,1.7977 1.49361,0.27788 2.54159,-0.0463 3.342481,-0.40039 0.420751,-0.12005 0.835631,-0.25975 1.25009,-0.41047 0.166709,-0.0606 0.295979,-0.13558 0.39375,-0.2217 0.154091,-0.038 0.278839,-0.21725 0.243081,-0.7059 -0.0691,-0.94499 -2.16662,-3.04254 -2.88113,-3.11169 -0.714502,-0.0691 -3.203692,0.0923 -4.356111,0.0462 -0.402531,-0.0161 -0.903232,-0.0678 -1.421892,-0.12289 -0.397938,-0.0595 -0.775427,-0.0965 -1.133578,-0.11429 -0.408601,-0.0373 -0.80646,-0.0665 -1.160121,-0.0715 -0.16202,-0.002 -0.31501,5.3e-4 -0.456179,0.009 -1.129382,0.0691 -3.826121,1.10615 -4.102711,1.65932 -0.0606,0.12113 -0.066,0.21905 -0.0408,0.29986 -0.1618,-0.13711 -0.238252,-0.41688 0.46331,-0.95809 1.02808,-0.79308 2.351489,-1.98088 6.919938,-1.42115 l 1.188141,0.22244 c 0,0 4.33319,-1.75158 8.988981,-7.6981 4.655798,-5.94651 5.43928,-11.1092 6.03854,-13.36795 0.372139,-1.40268 1.38384,-2.46684 2.097559,-3.0726 0.496731,-0.39936 1.098441,-0.77763 1.831858,-1.11613 3.38994,-1.56458 6.062851,-4.82403 6.649561,-5.7367 0.193062,-0.30032 0.42581,-0.69775 0.540991,-1.0215 0.116761,-0.29896 0.14704,-0.57901 -0.105201,-0.61054 -0.01151,-10e-4 -0.02461,-0.002 -0.0388,-10e-4 -0.441942,0.0129 -2.168052,0.90188 -3.418422,1.66104 -1.29072,0.78365 -4.655767,0.34553 -6.200018,1.03698 -1.539751,0.68944 -3.102251,2.22724 -3.43121,5.41202 -0.17485,-1.21096 -0.0624,-2.04822 0.122399,-2.65845 1.054553,-1.98868 0.765924,-2.03148 -0.425206,-2.63828 -1.221571,-0.62241 -3.41112,-0.7606 -4.863179,-1.38291 -1.452052,-0.62231 -2.373911,-2.55824 -2.512201,-2.78872 -0.0432,-0.072 -0.136062,-0.11723 -0.233989,-0.12117 z m 7.922511,9.58919 c -5.29e-4,0.007 -0.005,0.0425 -0.005,0.0425 -0.0011,-0.009 -0.0021,-0.017 -0.003,-0.0258 2.61e-4,-7.4e-4 0.007,-0.0148 0.008,-0.0167 z m -22.33948,20.3631 c 0.768419,0.0254 0.833189,0.96756 0.443399,1.68218 -0.445479,0.81672 -1.484698,0.74231 -1.93018,0.66806 -0.445484,-0.0742 -0.519877,-0.6682 -0.371388,-1.03945 0,0 0.371354,-0.96514 1.485056,-1.26212 0.139213,-0.0371 0.263332,-0.0523 0.373113,-0.0487 z"
       style="fill:url(#linearGradient4740);fill-opacity:1;fill-rule:evenodd;stroke:none;stroke-width:0.26458329px;stroke-linecap:butt;stroke-linejoin:miter;stroke-opacity:1" />
    <g
       aria-label="Static blog generator"
       style="font-style:normal;font-weight:normal;font-size:5.60066843px;line-height:3.50041771px;font-family:sans-serif;text-align:center;letter-spacing:0px;word-spacing:0px;text-anchor:middle;fill:#555156;fill-opacity:1;stroke:none;stroke-width:0.26458341px;stroke-linecap:butt;stroke-linejoin:miter;stroke-opacity:1"
       id="text4734">
      <path
         d="m 64.110479,276.82174 q 0.526463,0 0.778493,0.22962 0.257631,0.22963 0.257631,0.59928 0,0.31363 -0.173621,0.48165 -0.173621,0.16242 -0.49846,0.16242 -0.100812,0 -0.128815,-0.0168 -0.028,-0.0224 -0.028,-0.084 0,-0.056 -0.0112,-0.14562 -0.0056,-0.0896 -0.0392,-0.17362 -0.0336,-0.084 -0.106413,-0.14001 -0.07281,-0.0616 -0.201624,-0.0616 -0.179222,0 -0.319238,0.11201 -0.140017,0.10641 -0.140017,0.28003 0,0.15122 0.112013,0.24643 0.117614,0.0952 0.291235,0.17923 0.173621,0.0784 0.375245,0.16241 0.207225,0.084 0.380845,0.22403 0.173621,0.13442 0.285634,0.34164 0.117615,0.20163 0.117615,0.51526 0,0.24643 -0.08401,0.46486 -0.07841,0.21282 -0.240828,0.37524 -0.156819,0.15682 -0.403248,0.24643 -0.240829,0.0896 -0.565668,0.0896 -0.280033,0 -0.520862,-0.0616 -0.235228,-0.0616 -0.41445,-0.15122 -0.17362,-0.0952 -0.274432,-0.20163 -0.100812,-0.11201 -0.100812,-0.20162 0,-0.36964 0.0392,-0.53206 0.04481,-0.16242 0.156819,-0.16242 0.07841,0 0.162419,0.0672 0.08961,0.0672 0.201625,0.15121 0.112013,0.084 0.25763,0.15122 0.151218,0.0672 0.347242,0.0672 0.07841,0 0.151218,-0.0112 0.07841,-0.0168 0.134416,-0.0504 0.06161,-0.0336 0.09521,-0.0896 0.03921,-0.056 0.03921,-0.13441 0,-0.14002 -0.106413,-0.22403 -0.106413,-0.084 -0.268832,-0.15122 -0.162419,-0.0728 -0.352842,-0.14562 -0.184822,-0.0784 -0.347241,-0.20722 -0.16242,-0.13442 -0.268833,-0.34164 -0.106412,-0.20723 -0.106412,-0.53207 0,-0.36404 0.134416,-0.61607 0.140016,-0.25203 0.352842,-0.40885 0.218426,-0.16242 0.487258,-0.22963 0.274433,-0.0728 0.543265,-0.0728 z"
         style="font-style:normal;font-variant:normal;font-weight:normal;font-stretch:normal;font-family:'Poetsen One';-inkscape-font-specification:'Poetsen One';fill:#555156;fill-opacity:1;stroke-width:0.26458341px"
         id="path5180" />
      <path
         d="m 66.748481,278.52994 q -0.0168,0.21283 -0.0392,0.42005 -0.0168,0.20722 -0.0336,0.39205 -0.0168,0.18482 -0.028,0.33044 -0.0056,0.14561 -0.0056,0.22402 0,0.14562 0.0336,0.19603 0.0336,0.0448 0.112014,0.0448 0.06161,0 0.106413,-0.0224 0.0448,-0.0224 0.08401,-0.0504 0.0392,-0.028 0.06721,-0.0504 0.0336,-0.0224 0.07281,-0.0224 0.0392,0 0.07281,0.0448 0.0336,0.0448 0.0336,0.20722 0,0.30804 -0.16802,0.48726 -0.16802,0.17922 -0.576869,0.17922 -0.403248,0 -0.599271,-0.18482 -0.190423,-0.19042 -0.190423,-0.57687 0,-0.084 0.0056,-0.19602 0.0112,-0.11761 0.028,-0.30244 0.0168,-0.18482 0.03921,-0.45365 0.028,-0.26883 0.05601,-0.66648 h -0.296835 q -0.04481,0 -0.05601,-0.0168 -0.0056,-0.0224 -0.0056,-0.0616 l 0.0168,-0.28563 q 0.0056,-0.0728 0.0168,-0.14002 0.0168,-0.0728 0.05601,-0.12882 0.0448,-0.056 0.123215,-0.0896 0.07841,-0.0336 0.207225,-0.0336 0.0392,-0.10081 0.08961,-0.24083 0.05041,-0.14002 0.100812,-0.26883 0.05041,-0.13442 0.09521,-0.22403 0.05041,-0.0896 0.08961,-0.0896 h 0.16242 q 0.235228,0 0.324838,0.14562 0.08961,0.14562 0.08961,0.34724 0,0.11201 -0.0168,0.33044 h 0.58807 q 0.08961,0 0.08961,0.0784 l -0.0224,0.30244 q -0.0112,0.16802 -0.09521,0.27443 -0.07841,0.10081 -0.330439,0.10081 z"
         style="font-style:normal;font-variant:normal;font-weight:normal;font-stretch:normal;font-family:'Poetsen One';-inkscape-font-specification:'Poetsen One';fill:#555156;fill-opacity:1;stroke-width:0.26458341px"
         id="path5182" />
      <path
         d="m 67.607834,280.16534 q 0,-0.50406 0.453654,-0.7897 0.453654,-0.28563 1.338559,-0.30804 0.0056,-0.0616 0.0056,-0.10081 0.0056,-0.0448 0.0056,-0.10641 0,-0.17922 -0.06721,-0.28563 -0.06721,-0.10642 -0.280034,-0.10642 -0.117614,0 -0.190422,0.0336 -0.07281,0.0336 -0.117614,0.0952 -0.04481,0.056 -0.07281,0.14001 -0.028,0.084 -0.05041,0.18483 -0.0112,0.0504 -0.05041,0.0672 -0.03921,0.0112 -0.123215,0.0112 -0.571268,0 -0.571268,-0.43126 0,-0.17362 0.07841,-0.33043 0.08401,-0.15682 0.240829,-0.26884 0.162419,-0.11761 0.403248,-0.18482 0.240829,-0.0672 0.560067,-0.0672 0.621674,0 0.901708,0.25763 0.280033,0.25763 0.280033,0.72809 0,0.0616 -0.0168,0.22403 -0.0112,0.15682 -0.0336,0.33604 -0.0168,0.17362 -0.0336,0.33044 -0.0112,0.15682 -0.0112,0.21842 0,0.14002 0.05041,0.20163 0.05041,0.056 0.112013,0.0784 0.06721,0.0224 0.117614,0.0336 0.05041,0.0112 0.05041,0.056 0,0.12321 -0.0336,0.25203 -0.0336,0.12881 -0.112013,0.23523 -0.07281,0.10641 -0.207225,0.17362 -0.128815,0.0672 -0.319238,0.0672 -0.268832,0 -0.403248,-0.12881 -0.134416,-0.12882 -0.179222,-0.35844 -0.134416,0.19602 -0.352842,0.34164 -0.212825,0.14561 -0.560067,0.14561 -0.16802,0 -0.319238,-0.0392 -0.145617,-0.0392 -0.25763,-0.12882 -0.106413,-0.0896 -0.173621,-0.22962 -0.06161,-0.14562 -0.06161,-0.34724 z m 1.741807,-0.63848 q -0.145617,0 -0.285634,0.0224 -0.140016,0.0224 -0.25203,0.0728 -0.106412,0.0448 -0.17362,0.12322 -0.06721,0.0784 -0.06721,0.19042 0,0.12881 0.07841,0.17922 0.08401,0.0504 0.179221,0.0504 0.08961,0 0.179222,-0.0392 0.08961,-0.0392 0.156818,-0.11761 0.07281,-0.084 0.123215,-0.20163 0.05041,-0.11761 0.06161,-0.28003 z"
         style="font-style:normal;font-variant:normal;font-weight:normal;font-stretch:normal;font-family:'Poetsen One';-inkscape-font-specification:'Poetsen One';fill:#555156;fill-opacity:1;stroke-width:0.26458341px"
         id="path5184" />
      <path
         d="m 72.130374,278.52994 q -0.0168,0.21283 -0.03921,0.42005 -0.0168,0.20722 -0.0336,0.39205 -0.0168,0.18482 -0.028,0.33044 -0.0056,0.14561 -0.0056,0.22402 0,0.14562 0.0336,0.19603 0.0336,0.0448 0.112013,0.0448 0.06161,0 0.106413,-0.0224 0.0448,-0.0224 0.08401,-0.0504 0.03921,-0.028 0.06721,-0.0504 0.0336,-0.0224 0.07281,-0.0224 0.0392,0 0.07281,0.0448 0.0336,0.0448 0.0336,0.20722 0,0.30804 -0.16802,0.48726 -0.16802,0.17922 -0.576868,0.17922 -0.403249,0 -0.599272,-0.18482 -0.190423,-0.19042 -0.190423,-0.57687 0,-0.084 0.0056,-0.19602 0.0112,-0.11761 0.028,-0.30244 0.0168,-0.18482 0.0392,-0.45365 0.028,-0.26883 0.05601,-0.66648 h -0.296836 q -0.04481,0 -0.05601,-0.0168 -0.0056,-0.0224 -0.0056,-0.0616 l 0.0168,-0.28563 q 0.0056,-0.0728 0.0168,-0.14002 0.0168,-0.0728 0.05601,-0.12882 0.0448,-0.056 0.123214,-0.0896 0.07841,-0.0336 0.207225,-0.0336 0.0392,-0.10081 0.08961,-0.24083 0.05041,-0.14002 0.100812,-0.26883 0.05041,-0.13442 0.09521,-0.22403 0.05041,-0.0896 0.08961,-0.0896 h 0.162419 q 0.235228,0 0.324839,0.14562 0.08961,0.14562 0.08961,0.34724 0,0.11201 -0.0168,0.33044 h 0.58807 q 0.08961,0 0.08961,0.0784 l -0.0224,0.30244 q -0.0112,0.16802 -0.09521,0.27443 -0.07841,0.10081 -0.330439,0.10081 z"
         style="font-style:normal;font-variant:normal;font-weight:normal;font-stretch:normal;font-family:'Poetsen One';-inkscape-font-specification:'Poetsen One';fill:#555156;fill-opacity:1;stroke-width:0.26458341px"
         id="path5186" />
      <path
         d="m 73.734615,280.85422 q -0.173621,0 -0.285634,-0.0336 -0.106413,-0.0392 -0.173621,-0.10641 -0.06161,-0.0672 -0.08961,-0.16242 -0.0224,-0.10081 -0.0224,-0.22963 0,-0.084 0.0056,-0.23522 0.0112,-0.15682 0.0336,-0.42565 0.0224,-0.27444 0.05041,-0.68889 0.0336,-0.42005 0.07841,-1.03612 0.0056,-0.12322 0.028,-0.14562 0.0168,-0.0168 0.08961,-0.0168 h 0.218426 q 0.17362,0 0.280033,0.0336 0.112013,0.0336 0.173621,0.10082 0.06721,0.0672 0.08961,0.16242 0.028,0.0952 0.028,0.21282 0,0.084 -0.0112,0.25203 -0.0112,0.16802 -0.0336,0.45926 -0.0168,0.28563 -0.05041,0.71688 -0.0336,0.42565 -0.08401,1.03052 -0.0056,0.0672 -0.028,0.0896 -0.0224,0.0224 -0.09521,0.0224 z m -0.397648,-3.74125 q 0,-0.22403 0.16242,-0.35284 0.162419,-0.12882 0.436852,-0.12882 0.240828,0 0.347241,0.10082 0.112014,0.0952 0.112014,0.25763 0,0.20722 -0.156819,0.34724 -0.151218,0.13441 -0.448054,0.13441 -0.453654,0 -0.453654,-0.35844 z"
         style="font-style:normal;font-variant:normal;font-weight:normal;font-stretch:normal;font-family:'Poetsen One';-inkscape-font-specification:'Poetsen One';fill:#555156;fill-opacity:1;stroke-width:0.26458341px"
         id="path5188" />
      <path
         d="m 76.144303,280.16534 q 0.162419,0 0.280033,-0.0448 0.123215,-0.0448 0.212826,-0.10081 0.08961,-0.056 0.151218,-0.10081 0.06161,-0.0448 0.112013,-0.0448 0.128815,0 0.128815,0.16802 0,0.0392 -0.0168,0.11201 -0.0168,0.0672 -0.0448,0.14562 -0.028,0.0728 -0.06161,0.14002 -0.028,0.0672 -0.05601,0.10081 -0.028,0.028 -0.100812,0.0896 -0.06721,0.0616 -0.184822,0.12322 -0.117614,0.0616 -0.274433,0.10641 -0.156818,0.0504 -0.347241,0.0504 -0.212826,0 -0.442453,-0.0616 -0.224027,-0.0672 -0.408849,-0.22403 -0.184822,-0.16242 -0.308037,-0.43125 -0.117614,-0.27443 -0.117614,-0.68328 0,-0.14562 0.0168,-0.33044 0.0224,-0.19043 0.08401,-0.38645 0.06161,-0.20162 0.16242,-0.39205 0.106413,-0.19602 0.280033,-0.34724 0.173621,-0.15121 0.41445,-0.24083 0.246429,-0.0952 0.582469,-0.0952 0.274433,0 0.470456,0.0672 0.201624,0.0616 0.33044,0.17362 0.128815,0.10641 0.190423,0.25203 0.06721,0.14562 0.06721,0.31364 0,0.30244 -0.190423,0.44805 -0.190423,0.14002 -0.537664,0.14002 -0.08401,0 -0.117614,-0.0112 -0.028,-0.0168 -0.028,-0.0672 0,-0.13442 -0.0056,-0.24083 -0.0056,-0.10641 -0.0336,-0.17922 -0.0224,-0.0728 -0.07281,-0.11201 -0.05041,-0.0392 -0.145617,-0.0392 -0.173621,0 -0.280034,0.11202 -0.100812,0.11201 -0.156819,0.27443 -0.05041,0.15682 -0.06721,0.32484 -0.0112,0.16802 -0.0112,0.28003 0,0.39765 0.123215,0.55447 0.128815,0.15682 0.403248,0.15682 z"
         style="font-style:normal;font-variant:normal;font-weight:normal;font-stretch:normal;font-family:'Poetsen One';-inkscape-font-specification:'Poetsen One';fill:#555156;fill-opacity:1;stroke-width:0.26458341px"
         id="path5190" />
      <path
         d="m 80.062846,280.91022 q -0.431251,0 -0.683282,-0.12321 -0.25203,-0.12882 -0.380845,-0.31924 -0.128815,-0.19042 -0.162419,-0.40885 -0.0336,-0.22402 -0.0336,-0.40885 0,-0.0728 0.0112,-0.28563 0.0168,-0.21283 0.03921,-0.49286 0.0224,-0.28003 0.0448,-0.59367 0.0224,-0.31924 0.0448,-0.59927 0.0224,-0.28564 0.0336,-0.50406 0.0168,-0.21843 0.0168,-0.30244 0,-0.12321 0.0168,-0.14001 0.0168,-0.0224 0.100812,-0.0224 h 0.218426 q 0.16802,0 0.280034,0.0392 0.112013,0.0392 0.179221,0.10641 0.06721,0.0672 0.09521,0.15682 0.028,0.084 0.028,0.18482 0,0.0952 -0.0224,0.36965 -0.0168,0.27443 -0.0448,0.64407 0.145617,-0.25203 0.330439,-0.36964 0.184822,-0.12322 0.487259,-0.12322 0.50966,0 0.778492,0.33604 0.274433,0.33604 0.274433,1.00252 0,0.17362 -0.028,0.38085 -0.0224,0.20722 -0.08961,0.41445 -0.06161,0.20162 -0.179221,0.39765 -0.112014,0.19042 -0.296836,0.33604 -0.184822,0.14561 -0.448053,0.23522 -0.257631,0.0896 -0.610473,0.0896 z m 0.25203,-2.44749 q -0.201624,0 -0.319238,0.10641 -0.112013,0.10642 -0.173621,0.25764 -0.06161,0.15121 -0.07841,0.32483 -0.0168,0.16802 -0.0168,0.29684 0,0.38645 0.106413,0.55447 0.106412,0.16242 0.319238,0.16242 0.201624,0 0.313637,-0.12322 0.117614,-0.12881 0.173621,-0.30244 0.06161,-0.17362 0.07841,-0.35284 0.0168,-0.17922 0.0168,-0.28003 0,-0.31364 -0.09521,-0.47606 -0.09521,-0.16802 -0.324839,-0.16802 z"
         style="font-style:normal;font-variant:normal;font-weight:normal;font-stretch:normal;font-family:'Poetsen One';-inkscape-font-specification:'Poetsen One';fill:#555156;fill-opacity:1;stroke-width:0.26458341px"
         id="path5192" />
      <path
         d="m 82.788184,280.90462 q -0.347242,0 -0.49846,-0.18482 -0.151218,-0.18482 -0.151218,-0.61047 0,-0.0672 0.0056,-0.16802 0.0112,-0.10081 0.0224,-0.25763 0.0168,-0.16242 0.0392,-0.39765 0.0224,-0.23523 0.04481,-0.57127 0.028,-0.33604 0.05601,-0.78969 0.0336,-0.45366 0.06721,-1.05293 0.0056,-0.12321 0.028,-0.14562 0.0168,-0.0168 0.08961,-0.0168 h 0.218427 q 0.16802,0 0.280033,0.0392 0.112013,0.0392 0.179221,0.10641 0.06721,0.0672 0.09521,0.15682 0.028,0.084 0.028,0.17922 0,0.11201 -0.0168,0.32484 -0.0112,0.20722 -0.0336,0.47046 -0.0224,0.26323 -0.0448,0.54886 -0.0224,0.28563 -0.04481,0.54887 -0.0224,0.25763 -0.0392,0.46485 -0.0112,0.20723 -0.0112,0.31364 0,0.14562 0.05041,0.20722 0.05601,0.0616 0.117614,0.0896 0.06161,0.0224 0.112014,0.0336 0.05601,0.006 0.05601,0.0336 0,0.12322 -0.028,0.24643 -0.028,0.11762 -0.100812,0.21843 -0.07281,0.0952 -0.201624,0.15682 -0.123215,0.056 -0.319238,0.056 z"
         style="font-style:normal;font-variant:normal;font-weight:normal;font-stretch:normal;font-family:'Poetsen One';-inkscape-font-specification:'Poetsen One';fill:#555156;fill-opacity:1;stroke-width:0.26458341px"
         id="path5194" />
      <path
         d="m 85.088571,280.91022 q -0.386446,0 -0.644077,-0.10641 -0.25203,-0.11201 -0.403248,-0.30243 -0.151218,-0.19043 -0.212826,-0.44246 -0.06161,-0.25763 -0.06161,-0.54886 0,-0.33604 0.07841,-0.65528 0.08401,-0.32484 0.280034,-0.57687 0.196023,-0.25203 0.515261,-0.40325 0.324839,-0.15682 0.806497,-0.15682 0.705684,0 1.00812,0.34724 0.308037,0.34165 0.308037,0.96332 0,0.17362 -0.028,0.38645 -0.0224,0.20722 -0.09521,0.41445 -0.06721,0.20722 -0.190423,0.40324 -0.117614,0.19603 -0.302436,0.34724 -0.184822,0.15122 -0.448053,0.24083 -0.257631,0.0896 -0.610473,0.0896 z m 0.263231,-2.44749 q -0.212825,0 -0.341641,0.11202 -0.123214,0.10641 -0.190422,0.26323 -0.06161,0.15121 -0.08401,0.32484 -0.0168,0.16802 -0.0168,0.28563 0,0.36964 0.117614,0.54326 0.117614,0.17363 0.33604,0.17363 0.196023,0 0.319238,-0.12322 0.128815,-0.12321 0.196023,-0.29683 0.07281,-0.17363 0.09521,-0.36405 0.028,-0.19042 0.028,-0.31924 0,-0.28003 -0.106413,-0.43685 -0.100812,-0.16242 -0.352842,-0.16242 z"
         style="font-style:normal;font-variant:normal;font-weight:normal;font-stretch:normal;font-family:'Poetsen One';-inkscape-font-specification:'Poetsen One';fill:#555156;fill-opacity:1;stroke-width:0.26458341px"
         id="path5196" />
      <path
         d="m 89.012714,280.19334 q -0.140016,0.25203 -0.34164,0.37524 -0.201624,0.11762 -0.504061,0.11762 -0.229627,0 -0.42005,-0.0728 -0.190422,-0.0728 -0.324838,-0.22963 -0.134416,-0.15682 -0.212826,-0.39205 -0.07281,-0.24082 -0.07281,-0.57126 0,-0.26884 0.05601,-0.56567 0.05601,-0.30244 0.201624,-0.55447 0.151218,-0.25203 0.408849,-0.41445 0.257631,-0.16802 0.660879,-0.16802 0.16802,0 0.285634,0.0392 0.123215,0.0336 0.207225,0.0952 0.08961,0.0616 0.140016,0.14562 0.05601,0.084 0.08401,0.17922 0,0.006 0,-0.0392 0.0056,-0.0504 0.0112,-0.11201 0.0056,-0.0616 0.0056,-0.11761 0.0056,-0.0616 0.0056,-0.0784 0.0056,-0.056 0.07281,-0.056 h 0.257631 q 0.291234,0 0.42005,0.12321 0.134416,0.11762 0.134416,0.45366 0,0.0448 -0.0056,0.20722 -0.0056,0.15682 -0.0224,0.38085 -0.0112,0.22403 -0.0336,0.49846 -0.0224,0.26883 -0.05041,0.54326 -0.028,0.27444 -0.06161,0.52647 -0.0336,0.25203 -0.07281,0.44245 -0.0392,0.19042 -0.134416,0.36964 -0.09521,0.17922 -0.268832,0.31924 -0.173621,0.14002 -0.448053,0.22403 -0.268832,0.084 -0.660879,0.084 -0.296836,0 -0.520862,-0.056 -0.218426,-0.056 -0.364044,-0.15122 -0.145617,-0.0896 -0.224027,-0.20722 -0.07281,-0.11762 -0.07281,-0.23523 0,-0.10641 0.0448,-0.18482 0.04481,-0.0784 0.117614,-0.12882 0.07281,-0.0504 0.156819,-0.0784 0.08961,-0.0224 0.16802,-0.0224 0.09521,0 0.140017,0.056 0.0448,0.056 0.100812,0.12321 0.05601,0.0728 0.156818,0.12882 0.100812,0.056 0.313638,0.056 0.369644,0 0.515261,-0.27443 0.151218,-0.26883 0.151218,-0.77849 z m -0.470456,-0.25203 q 0.201624,0 0.313638,-0.0952 0.117614,-0.0952 0.179221,-0.22963 0.06161,-0.13442 0.07841,-0.28003 0.0168,-0.14562 0.0168,-0.25203 0,-0.33604 -0.106412,-0.47606 -0.100812,-0.14562 -0.308037,-0.14562 -0.207225,0 -0.324839,0.11202 -0.117614,0.11201 -0.179221,0.26883 -0.05601,0.15122 -0.07281,0.30803 -0.0168,0.15122 -0.0168,0.23523 0,0.28004 0.09521,0.42005 0.09521,0.13442 0.324839,0.13442 z"
         style="font-style:normal;font-variant:normal;font-weight:normal;font-stretch:normal;font-family:'Poetsen One';-inkscape-font-specification:'Poetsen One';fill:#555156;fill-opacity:1;stroke-width:0.26458341px"
         id="path5198" />
      <path
         d="m 93.61795,280.19334 q -0.140016,0.25203 -0.34164,0.37524 -0.201624,0.11762 -0.50406,0.11762 -0.229628,0 -0.420051,-0.0728 -0.190422,-0.0728 -0.324838,-0.22963 -0.134416,-0.15682 -0.212826,-0.39205 -0.07281,-0.24082 -0.07281,-0.57126 0,-0.26884 0.05601,-0.56567 0.05601,-0.30244 0.201624,-0.55447 0.151218,-0.25203 0.408849,-0.41445 0.257631,-0.16802 0.660879,-0.16802 0.16802,0 0.285634,0.0392 0.123215,0.0336 0.207225,0.0952 0.08961,0.0616 0.140016,0.14562 0.05601,0.084 0.08401,0.17922 0,0.006 0,-0.0392 0.0056,-0.0504 0.0112,-0.11201 0.0056,-0.0616 0.0056,-0.11761 0.0056,-0.0616 0.0056,-0.0784 0.0056,-0.056 0.07281,-0.056 h 0.257631 q 0.291234,0 0.42005,0.12321 0.134416,0.11762 0.134416,0.45366 0,0.0448 -0.0056,0.20722 -0.0056,0.15682 -0.0224,0.38085 -0.0112,0.22403 -0.0336,0.49846 -0.0224,0.26883 -0.05041,0.54326 -0.028,0.27444 -0.06161,0.52647 -0.0336,0.25203 -0.07281,0.44245 -0.0392,0.19042 -0.134416,0.36964 -0.09521,0.17922 -0.268832,0.31924 -0.17362,0.14002 -0.448053,0.22403 -0.268832,0.084 -0.660879,0.084 -0.296836,0 -0.520862,-0.056 -0.218426,-0.056 -0.364044,-0.15122 -0.145617,-0.0896 -0.224026,-0.20722 -0.07281,-0.11762 -0.07281,-0.23523 0,-0.10641 0.0448,-0.18482 0.04481,-0.0784 0.117614,-0.12882 0.07281,-0.0504 0.156819,-0.0784 0.08961,-0.0224 0.16802,-0.0224 0.09521,0 0.140017,0.056 0.04481,0.056 0.100812,0.12321 0.05601,0.0728 0.156818,0.12882 0.100813,0.056 0.313638,0.056 0.369644,0 0.515261,-0.27443 0.151218,-0.26883 0.151218,-0.77849 z m -0.470456,-0.25203 q 0.201624,0 0.313638,-0.0952 0.117614,-0.0952 0.179221,-0.22963 0.06161,-0.13442 0.07841,-0.28003 0.0168,-0.14562 0.0168,-0.25203 0,-0.33604 -0.106412,-0.47606 -0.100812,-0.14562 -0.308037,-0.14562 -0.207225,0 -0.324839,0.11202 -0.117614,0.11201 -0.179221,0.26883 -0.05601,0.15122 -0.07281,0.30803 -0.0168,0.15122 -0.0168,0.23523 0,0.28004 0.09521,0.42005 0.09521,0.13442 0.324838,0.13442 z"
         style="font-style:normal;font-variant:normal;font-weight:normal;font-stretch:normal;font-family:'Poetsen One';-inkscape-font-specification:'Poetsen One';fill:#555156;fill-opacity:1;stroke-width:0.26458341px"
         id="path5200" />
      <path
         d="m 96.482256,280.91022 q -0.246429,0 -0.492859,-0.0616 -0.240828,-0.0616 -0.436852,-0.21283 -0.190422,-0.15122 -0.313637,-0.40325 -0.123215,-0.25203 -0.123215,-0.63287 0,-0.14002 0.0224,-0.33604 0.0224,-0.19603 0.08401,-0.40325 0.06721,-0.20723 0.179221,-0.40885 0.117614,-0.20722 0.302436,-0.36964 0.184822,-0.16242 0.448054,-0.26323 0.263231,-0.10082 0.627275,-0.10082 0.291234,0 0.492858,0.0672 0.201624,0.0672 0.324839,0.18482 0.123215,0.11202 0.179222,0.26323 0.05601,0.15122 0.05601,0.32484 0,0.25763 -0.106412,0.43686 -0.100812,0.17922 -0.268833,0.30243 -0.162419,0.11762 -0.364043,0.18482 -0.201624,0.0672 -0.397647,0.10642 -0.196024,0.0336 -0.364044,0.0448 -0.162419,0.006 -0.25203,0.006 0,0.10642 0.028,0.21283 0.0336,0.10081 0.09521,0.17922 0.06161,0.0784 0.162419,0.12881 0.100812,0.0504 0.24643,0.0504 0.145617,0 0.224026,-0.0448 0.08401,-0.0504 0.134416,-0.10642 0.05041,-0.0616 0.08401,-0.10641 0.03921,-0.0504 0.100812,-0.0504 0.028,0 0.09521,0.0168 0.07281,0.0112 0.145617,0.056 0.07281,0.0448 0.128816,0.12322 0.05601,0.0784 0.05601,0.20162 0,0.16242 -0.100812,0.28003 -0.100812,0.11762 -0.263231,0.19043 -0.156819,0.0728 -0.352842,0.10641 -0.196024,0.0336 -0.380846,0.0336 z m 0.106413,-2.44749 q -0.123215,0 -0.212826,0.0728 -0.08401,0.0672 -0.145617,0.17362 -0.05601,0.10641 -0.08961,0.23523 -0.028,0.12881 -0.0448,0.24643 0.347242,-0.006 0.560067,-0.11762 0.218426,-0.11201 0.218426,-0.31923 0,-0.11202 -0.07281,-0.20163 -0.06721,-0.0896 -0.212825,-0.0896 z"
         style="font-style:normal;font-variant:normal;font-weight:normal;font-stretch:normal;font-family:'Poetsen One';-inkscape-font-specification:'Poetsen One';fill:#555156;fill-opacity:1;stroke-width:0.26458341px"
         id="path5202" />
      <path
         d="m 100.07368,280.36136 q 0,-0.12322 0.0168,-0.31924 0.0224,-0.20162 0.0392,-0.42005 0.0224,-0.22403 0.0392,-0.43125 0.0224,-0.20723 0.0224,-0.34724 0,-0.14562 -0.0728,-0.25763 -0.0672,-0.11762 -0.268834,-0.11762 -0.196023,0 -0.324839,0.0952 -0.128815,0.0952 -0.218426,0.34725 -0.08401,0.25203 -0.140016,0.69448 -0.05601,0.44245 -0.106413,1.13693 -0.0056,0.0672 -0.028,0.0896 -0.0224,0.0224 -0.09521,0.0224 h -0.201624 q -0.173621,0 -0.285634,-0.0336 -0.106413,-0.0392 -0.173621,-0.10641 -0.06161,-0.0672 -0.08961,-0.16242 -0.0224,-0.10081 -0.0224,-0.22963 0,-0.084 0.0056,-0.23522 0.0112,-0.15682 0.0336,-0.42565 0.0224,-0.27444 0.05041,-0.68889 0.0336,-0.42005 0.07841,-1.03612 0.0056,-0.12322 0.028,-0.14562 0.0168,-0.0168 0.08961,-0.0168 h 0.218426 q 0.16802,0 0.274433,0.0392 0.112013,0.0392 0.179221,0.10642 0.06721,0.0616 0.09521,0.15122 0.028,0.084 0.0336,0.17362 0.17362,-0.29684 0.397647,-0.40885 0.224027,-0.11762 0.560068,-0.11762 0.23523,0 0.40885,0.0504 0.17362,0.0504 0.28563,0.17362 0.11762,0.11761 0.17362,0.31364 0.056,0.19042 0.056,0.47605 0,0.0896 -0.0112,0.25763 -0.0112,0.16802 -0.028,0.36965 -0.0168,0.19602 -0.0392,0.41445 -0.0168,0.21282 -0.0336,0.39765 -0.0168,0.18482 -0.028,0.32483 -0.0112,0.14002 -0.0112,0.18483 0,0.12321 -0.028,0.15121 -0.028,0.0224 -0.12322,0.0224 h -0.17922 q -0.17922,0 -0.29123,-0.0336 -0.11202,-0.0336 -0.17362,-0.0952 -0.0616,-0.0616 -0.0896,-0.15122 -0.0224,-0.0952 -0.0224,-0.21282 z"
         style="font-style:normal;font-variant:normal;font-weight:normal;font-stretch:normal;font-family:'Poetsen One';-inkscape-font-specification:'Poetsen One';fill:#555156;fill-opacity:1;stroke-width:0.26458341px"
         id="path5204" />
      <path
         d="m 102.92521,280.91022 q -0.24643,0 -0.49286,-0.0616 -0.24083,-0.0616 -0.43685,-0.21283 -0.19042,-0.15122 -0.31364,-0.40325 -0.12321,-0.25203 -0.12321,-0.63287 0,-0.14002 0.0224,-0.33604 0.0224,-0.19603 0.084,-0.40325 0.0672,-0.20723 0.17922,-0.40885 0.11762,-0.20722 0.30244,-0.36964 0.18482,-0.16242 0.44805,-0.26323 0.26323,-0.10082 0.62728,-0.10082 0.29123,0 0.49286,0.0672 0.20162,0.0672 0.32483,0.18482 0.12322,0.11202 0.17923,0.26323 0.056,0.15122 0.056,0.32484 0,0.25763 -0.10641,0.43686 -0.10081,0.17922 -0.26883,0.30243 -0.16242,0.11762 -0.36405,0.18482 -0.20162,0.0672 -0.39764,0.10642 -0.19603,0.0336 -0.36405,0.0448 -0.16242,0.006 -0.25203,0.006 0,0.10642 0.028,0.21283 0.0336,0.10081 0.0952,0.17922 0.0616,0.0784 0.16242,0.12881 0.10081,0.0504 0.24643,0.0504 0.14561,0 0.22402,-0.0448 0.084,-0.0504 0.13442,-0.10642 0.0504,-0.0616 0.084,-0.10641 0.0392,-0.0504 0.10081,-0.0504 0.028,0 0.0952,0.0168 0.0728,0.0112 0.14562,0.056 0.0728,0.0448 0.12882,0.12322 0.056,0.0784 0.056,0.20162 0,0.16242 -0.10081,0.28003 -0.10081,0.11762 -0.26323,0.19043 -0.15682,0.0728 -0.35284,0.10641 -0.19603,0.0336 -0.38085,0.0336 z m 0.10641,-2.44749 q -0.12321,0 -0.21282,0.0728 -0.084,0.0672 -0.14562,0.17362 -0.056,0.10641 -0.0896,0.23523 -0.028,0.12881 -0.0448,0.24643 0.34724,-0.006 0.56006,-0.11762 0.21843,-0.11201 0.21843,-0.31923 0,-0.11202 -0.0728,-0.20163 -0.0672,-0.0896 -0.21283,-0.0896 z"
         style="font-style:normal;font-variant:normal;font-weight:normal;font-stretch:normal;font-family:'Poetsen One';-inkscape-font-specification:'Poetsen One';fill:#555156;fill-opacity:1;stroke-width:0.26458341px"
         id="path5206" />
      <path
         d="m 106.41583,279.11241 q -0.0336,0 -0.0784,0 -0.0392,-0.006 -0.0784,-0.0112 -0.0392,-0.0112 -0.0672,-0.0224 -0.028,-0.0168 -0.028,-0.0392 0,-0.0728 0.006,-0.13442 0.006,-0.0616 0.006,-0.12881 0,-0.12322 -0.0336,-0.20162 -0.0336,-0.0784 -0.13442,-0.0784 -0.15682,0 -0.26323,0.20722 -0.10081,0.20162 -0.12882,0.61047 -0.0112,0.17923 -0.0336,0.40885 -0.0168,0.22403 -0.0336,0.43685 -0.0168,0.20723 -0.028,0.36965 -0.0112,0.16242 -0.0112,0.21282 0,0.056 -0.0392,0.084 -0.0392,0.028 -0.084,0.028 h -0.20163 q -0.17362,0 -0.28563,-0.0336 -0.10641,-0.0392 -0.17362,-0.10641 -0.0616,-0.0672 -0.0896,-0.16242 -0.0224,-0.10081 -0.0224,-0.22963 0,-0.084 0.006,-0.23522 0.0112,-0.15682 0.0336,-0.42565 0.0224,-0.27444 0.0504,-0.68889 0.0336,-0.42005 0.0784,-1.03612 0.0112,-0.16242 0.11762,-0.16242 h 0.21842 q 0.15682,0 0.26324,0.0336 0.10641,0.0336 0.17362,0.0952 0.0672,0.056 0.0952,0.13441 0.0336,0.0784 0.0448,0.16242 0.0672,-0.12881 0.15682,-0.21843 0.0952,-0.0952 0.19603,-0.15121 0.10081,-0.0616 0.20722,-0.084 0.10641,-0.028 0.19602,-0.028 0.10642,0 0.21283,0.0392 0.11201,0.0392 0.20162,0.11761 0.0896,0.0784 0.14002,0.20163 0.056,0.12321 0.056,0.29123 0,0.15122 -0.0448,0.28563 -0.0448,0.13442 -0.12881,0.24083 -0.084,0.10082 -0.20723,0.16242 -0.11761,0.056 -0.26323,0.056 z"
         style="font-style:normal;font-variant:normal;font-weight:normal;font-stretch:normal;font-family:'Poetsen One';-inkscape-font-specification:'Poetsen One';fill:#555156;fill-opacity:1;stroke-width:0.26458341px"
         id="path5208" />
      <path
         d="m 107.09692,280.16534 q 0,-0.50406 0.45365,-0.7897 0.45366,-0.28563 1.33856,-0.30804 0.006,-0.0616 0.006,-0.10081 0.006,-0.0448 0.006,-0.10641 0,-0.17922 -0.0672,-0.28563 -0.0672,-0.10642 -0.28004,-0.10642 -0.11761,0 -0.19042,0.0336 -0.0728,0.0336 -0.11761,0.0952 -0.0448,0.056 -0.0728,0.14001 -0.028,0.084 -0.0504,0.18483 -0.0112,0.0504 -0.0504,0.0672 -0.0392,0.0112 -0.12322,0.0112 -0.57127,0 -0.57127,-0.43126 0,-0.17362 0.0784,-0.33043 0.084,-0.15682 0.24083,-0.26884 0.16242,-0.11761 0.40325,-0.18482 0.24083,-0.0672 0.56007,-0.0672 0.62167,0 0.9017,0.25763 0.28004,0.25763 0.28004,0.72809 0,0.0616 -0.0168,0.22403 -0.0112,0.15682 -0.0336,0.33604 -0.0168,0.17362 -0.0336,0.33044 -0.0112,0.15682 -0.0112,0.21842 0,0.14002 0.0504,0.20163 0.0504,0.056 0.11202,0.0784 0.0672,0.0224 0.11761,0.0336 0.0504,0.0112 0.0504,0.056 0,0.12321 -0.0336,0.25203 -0.0336,0.12881 -0.11201,0.23523 -0.0728,0.10641 -0.20723,0.17362 -0.12881,0.0672 -0.31923,0.0672 -0.26884,0 -0.40325,-0.12881 -0.13442,-0.12882 -0.17922,-0.35844 -0.13442,0.19602 -0.35285,0.34164 -0.21282,0.14561 -0.56006,0.14561 -0.16802,0 -0.31924,-0.0392 -0.14562,-0.0392 -0.25763,-0.12882 -0.10641,-0.0896 -0.17362,-0.22962 -0.0616,-0.14562 -0.0616,-0.34724 z m 1.74181,-0.63848 q -0.14562,0 -0.28564,0.0224 -0.14001,0.0224 -0.25203,0.0728 -0.10641,0.0448 -0.17362,0.12322 -0.0672,0.0784 -0.0672,0.19042 0,0.12881 0.0784,0.17922 0.084,0.0504 0.17923,0.0504 0.0896,0 0.17922,-0.0392 0.0896,-0.0392 0.15682,-0.11761 0.0728,-0.084 0.12321,-0.20163 0.0504,-0.11761 0.0616,-0.28003 z"
         style="font-style:normal;font-variant:normal;font-weight:normal;font-stretch:normal;font-family:'Poetsen One';-inkscape-font-specification:'Poetsen One';fill:#555156;fill-opacity:1;stroke-width:0.26458341px"
         id="path5210" />
      <path
         d="m 111.61946,278.52994 q -0.0168,0.21283 -0.0392,0.42005 -0.0168,0.20722 -0.0336,0.39205 -0.0168,0.18482 -0.028,0.33044 -0.006,0.14561 -0.006,0.22402 0,0.14562 0.0336,0.19603 0.0336,0.0448 0.11202,0.0448 0.0616,0 0.10641,-0.0224 0.0448,-0.0224 0.084,-0.0504 0.0392,-0.028 0.0672,-0.0504 0.0336,-0.0224 0.0728,-0.0224 0.0392,0 0.0728,0.0448 0.0336,0.0448 0.0336,0.20722 0,0.30804 -0.16802,0.48726 -0.16802,0.17922 -0.57687,0.17922 -0.40325,0 -0.59927,-0.18482 -0.19042,-0.19042 -0.19042,-0.57687 0,-0.084 0.006,-0.19602 0.0112,-0.11761 0.028,-0.30244 0.0168,-0.18482 0.0392,-0.45365 0.028,-0.26883 0.056,-0.66648 h -0.29683 q -0.0448,0 -0.056,-0.0168 -0.006,-0.0224 -0.006,-0.0616 l 0.0168,-0.28563 q 0.006,-0.0728 0.0168,-0.14002 0.0168,-0.0728 0.056,-0.12882 0.0448,-0.056 0.12322,-0.0896 0.0784,-0.0336 0.20722,-0.0336 0.0392,-0.10081 0.0896,-0.24083 0.0504,-0.14002 0.10081,-0.26883 0.0504,-0.13442 0.0952,-0.22403 0.0504,-0.0896 0.0896,-0.0896 h 0.16242 q 0.23523,0 0.32484,0.14562 0.0896,0.14562 0.0896,0.34724 0,0.11201 -0.0168,0.33044 h 0.58807 q 0.0896,0 0.0896,0.0784 l -0.0224,0.30244 q -0.0112,0.16802 -0.0952,0.27443 -0.0784,0.10081 -0.33044,0.10081 z"
         style="font-style:normal;font-variant:normal;font-weight:normal;font-stretch:normal;font-family:'Poetsen One';-inkscape-font-specification:'Poetsen One';fill:#555156;fill-opacity:1;stroke-width:0.26458341px"
         id="path5212" />
      <path
         d="m 113.85763,280.91022 q -0.38645,0 -0.64408,-0.10641 -0.25203,-0.11201 -0.40325,-0.30243 -0.15121,-0.19043 -0.21282,-0.44246 -0.0616,-0.25763 -0.0616,-0.54886 0,-0.33604 0.0784,-0.65528 0.084,-0.32484 0.28003,-0.57687 0.19603,-0.25203 0.51527,-0.40325 0.32483,-0.15682 0.80649,-0.15682 0.70569,0 1.00812,0.34724 0.30804,0.34165 0.30804,0.96332 0,0.17362 -0.028,0.38645 -0.0224,0.20722 -0.0952,0.41445 -0.0672,0.20722 -0.19042,0.40324 -0.11761,0.19603 -0.30243,0.34724 -0.18483,0.15122 -0.44806,0.24083 -0.25763,0.0896 -0.61047,0.0896 z m 0.26323,-2.44749 q -0.21282,0 -0.34164,0.11202 -0.12322,0.10641 -0.19042,0.26323 -0.0616,0.15121 -0.084,0.32484 -0.0168,0.16802 -0.0168,0.28563 0,0.36964 0.11762,0.54326 0.11761,0.17363 0.33604,0.17363 0.19602,0 0.31924,-0.12322 0.12881,-0.12321 0.19602,-0.29683 0.0728,-0.17363 0.0952,-0.36405 0.028,-0.19042 0.028,-0.31924 0,-0.28003 -0.10642,-0.43685 -0.10081,-0.16242 -0.35284,-0.16242 z"
         style="font-style:normal;font-variant:normal;font-weight:normal;font-stretch:normal;font-family:'Poetsen One';-inkscape-font-specification:'Poetsen One';fill:#555156;fill-opacity:1;stroke-width:0.26458341px"
         id="path5214" />
      <path
         d="m 117.75937,279.11241 q -0.0336,0 -0.0784,0 -0.0392,-0.006 -0.0784,-0.0112 -0.0392,-0.0112 -0.0672,-0.0224 -0.028,-0.0168 -0.028,-0.0392 0,-0.0728 0.006,-0.13442 0.006,-0.0616 0.006,-0.12881 0,-0.12322 -0.0336,-0.20162 -0.0336,-0.0784 -0.13442,-0.0784 -0.15682,0 -0.26323,0.20722 -0.10081,0.20162 -0.12882,0.61047 -0.0112,0.17923 -0.0336,0.40885 -0.0168,0.22403 -0.0336,0.43685 -0.0168,0.20723 -0.028,0.36965 -0.0112,0.16242 -0.0112,0.21282 0,0.056 -0.0392,0.084 -0.0392,0.028 -0.084,0.028 h -0.20163 q -0.17362,0 -0.28563,-0.0336 -0.10641,-0.0392 -0.17362,-0.10641 -0.0616,-0.0672 -0.0896,-0.16242 -0.0224,-0.10081 -0.0224,-0.22963 0,-0.084 0.006,-0.23522 0.0112,-0.15682 0.0336,-0.42565 0.0224,-0.27444 0.0504,-0.68889 0.0336,-0.42005 0.0784,-1.03612 0.0112,-0.16242 0.11762,-0.16242 h 0.21842 q 0.15682,0 0.26324,0.0336 0.10641,0.0336 0.17362,0.0952 0.0672,0.056 0.0952,0.13441 0.0336,0.0784 0.0448,0.16242 0.0672,-0.12881 0.15682,-0.21843 0.0952,-0.0952 0.19603,-0.15121 0.10081,-0.0616 0.20722,-0.084 0.10641,-0.028 0.19602,-0.028 0.10642,0 0.21283,0.0392 0.11201,0.0392 0.20162,0.11761 0.0896,0.0784 0.14002,0.20163 0.056,0.12321 0.056,0.29123 0,0.15122 -0.0448,0.28563 -0.0448,0.13442 -0.12881,0.24083 -0.084,0.10082 -0.20723,0.16242 -0.11761,0.056 -0.26323,0.056 z"
         style="font-style:normal;font-variant:normal;font-weight:normal;font-stretch:normal;font-family:'Poetsen One';-inkscape-font-specification:'Poetsen One';fill:#555156;fill-opacity:1;stroke-width:0.26458341px"
         id="path5216" />
    </g>
    <g
       aria-label="narval"
       style="font-style:normal;font-weight:normal;font-size:16.30416107px;line-height:10.19010067px;font-family:sans-serif;text-align:center;letter-spacing:0px;word-spacing:0px;text-anchor:middle;fill:#a82d54;fill-opacity:1;stroke:none;stroke-width:0.26458341px;stroke-linecap:butt;stroke-linejoin:miter;stroke-opacity:1"
       id="text4738">
      <path
         d="m 75.03847,271.10457 q 0,-0.35869 0.04891,-0.92934 0.06522,-0.58695 0.114129,-1.22281 0.06522,-0.65216 0.114129,-1.25542 0.06522,-0.60325 0.06522,-1.01086 0,-0.4239 -0.211954,-0.74999 -0.19565,-0.34239 -0.7826,-0.34239 -0.570646,0 -0.945641,0.27718 -0.374996,0.27717 -0.635863,1.01085 -0.244562,0.73369 -0.407604,2.02172 -0.163041,1.28803 -0.309779,3.30974 -0.0163,0.19565 -0.08152,0.26087 -0.06522,0.0652 -0.27717,0.0652 h -0.58695 q -0.505429,0 -0.831512,-0.0978 -0.309779,-0.11413 -0.505429,-0.30978 -0.179346,-0.19565 -0.260867,-0.47282 -0.06522,-0.29347 -0.06522,-0.66847 0,-0.24456 0.01631,-0.68477 0.03261,-0.45652 0.09783,-1.23912 0.06522,-0.7989 0.146737,-2.00541 0.09783,-1.22281 0.228258,-3.01627 0.0163,-0.35869 0.08152,-0.42391 0.04891,-0.0489 0.260867,-0.0489 h 0.635862 q 0.489125,0 0.798904,0.11413 0.326083,0.11413 0.521733,0.30978 0.19565,0.17934 0.277171,0.44021 0.08152,0.24456 0.09783,0.50543 0.505429,-0.86412 1.157595,-1.19021 0.652167,-0.34238 1.630416,-0.34238 0.684775,0 1.190204,0.14673 0.505429,0.14674 0.831512,0.50543 0.342388,0.34239 0.505429,0.91304 0.163042,0.55434 0.163042,1.38585 0,0.26087 -0.03261,0.74999 -0.03261,0.48913 -0.08152,1.07608 -0.04891,0.57064 -0.114129,1.2065 -0.04891,0.61956 -0.09783,1.1576 -0.04891,0.53804 -0.08152,0.94564 -0.03261,0.4076 -0.03261,0.53804 0,0.35869 -0.08152,0.44021 -0.08152,0.0652 -0.358692,0.0652 h -0.521733 q -0.521733,0 -0.847816,-0.0978 -0.326084,-0.0978 -0.505429,-0.27717 -0.179346,-0.17934 -0.260867,-0.44021 -0.06522,-0.27717 -0.06522,-0.61956 z"
         style="font-style:normal;font-variant:normal;font-weight:bold;font-stretch:normal;font-family:'Poetsen One';-inkscape-font-specification:'Poetsen One Bold';fill:#a82d54;fill-opacity:1;stroke-width:0.26458341px"
         id="path5167" />
      <path
         d="m 79.084195,270.53393 q 0,-1.46738 1.320637,-2.29889 1.320637,-0.83151 3.896694,-0.89673 0.01631,-0.17935 0.01631,-0.29348 0.0163,-0.13043 0.0163,-0.30977 0,-0.52174 -0.19565,-0.83152 -0.19565,-0.30978 -0.815208,-0.30978 -0.342388,0 -0.554342,0.0978 -0.211954,0.0978 -0.342387,0.27717 -0.130433,0.16304 -0.211954,0.4076 -0.08152,0.24457 -0.146738,0.53804 -0.03261,0.14674 -0.146737,0.19565 -0.114129,0.0326 -0.358692,0.0326 -1.663024,0 -1.663024,-1.25542 0,-0.50543 0.228258,-0.96195 0.244563,-0.45651 0.701079,-0.7826 0.472821,-0.34238 1.1739,-0.53803 0.701079,-0.19565 1.630416,-0.19565 1.809762,0 2.62497,0.74999 0.815208,0.74999 0.815208,2.11954 0,0.17935 -0.04891,0.65217 -0.03261,0.45651 -0.09783,0.97825 -0.04891,0.50542 -0.09783,0.96194 -0.03261,0.45652 -0.03261,0.63586 0,0.40761 0.146737,0.58695 0.146738,0.16304 0.326084,0.22826 0.19565,0.0652 0.342387,0.0978 0.146738,0.0326 0.146738,0.16304 0,0.35869 -0.09783,0.73369 -0.09783,0.37499 -0.326084,0.68477 -0.211954,0.30978 -0.603254,0.50543 -0.374995,0.19565 -0.929337,0.19565 -0.7826,0 -1.173899,-0.375 -0.3913,-0.37499 -0.521734,-1.04346 -0.391299,0.57064 -1.027162,0.99455 -0.619558,0.42391 -1.630416,0.42391 -0.489125,0 -0.929337,-0.11413 -0.423908,-0.11413 -0.749991,-0.375 -0.309779,-0.26086 -0.505429,-0.66847 -0.179346,-0.4239 -0.179346,-1.01085 z m 5.070594,-1.85868 q -0.423908,0 -0.831512,0.0652 -0.407604,0.0652 -0.733688,0.21195 -0.309779,0.13044 -0.505429,0.35869 -0.195649,0.22826 -0.195649,0.55434 0,0.375 0.228258,0.52174 0.244562,0.14674 0.521733,0.14674 0.260867,0 0.521733,-0.11413 0.260867,-0.11413 0.456517,-0.34239 0.211954,-0.24456 0.358691,-0.58695 0.146738,-0.34239 0.179346,-0.81521 z"
         style="font-style:normal;font-variant:normal;font-weight:bold;font-stretch:normal;font-family:'Poetsen One';-inkscape-font-specification:'Poetsen One Bold';fill:#a82d54;fill-opacity:1;stroke-width:0.26458341px"
         id="path5169" />
      <path
         d="m 94.010655,267.46874 q -0.09783,0 -0.228258,0 -0.11413,-0.0163 -0.228259,-0.0326 -0.114129,-0.0326 -0.19565,-0.0652 -0.08152,-0.0489 -0.08152,-0.11413 0,-0.21196 0.0163,-0.3913 0.0163,-0.17935 0.0163,-0.375 0,-0.35869 -0.09783,-0.58695 -0.09783,-0.22825 -0.3913,-0.22825 -0.456516,0 -0.766296,0.60325 -0.293474,0.58695 -0.374995,1.77715 -0.03261,0.52174 -0.09783,1.19021 -0.04891,0.65216 -0.09783,1.27172 -0.04891,0.60326 -0.08152,1.07608 -0.03261,0.47282 -0.03261,0.61955 0,0.16305 -0.114129,0.24457 -0.11413,0.0815 -0.244563,0.0815 h -0.58695 q -0.505429,0 -0.831512,-0.0978 -0.309779,-0.11413 -0.505429,-0.30978 -0.179346,-0.19565 -0.260866,-0.47282 -0.06522,-0.29347 -0.06522,-0.66847 0,-0.24456 0.0163,-0.68477 0.03261,-0.45652 0.09783,-1.23912 0.06522,-0.7989 0.146737,-2.00541 0.09783,-1.22281 0.228259,-3.01627 0.03261,-0.47282 0.342387,-0.47282 h 0.635862 q 0.456517,0 0.766296,0.0978 0.309779,0.0978 0.505429,0.27717 0.19565,0.16305 0.277171,0.3913 0.09783,0.22826 0.130433,0.47282 0.19565,-0.37499 0.456517,-0.63586 0.27717,-0.27717 0.570645,-0.44021 0.293475,-0.17935 0.603254,-0.24456 0.309779,-0.0815 0.570646,-0.0815 0.309779,0 0.619558,0.11413 0.326083,0.11413 0.58695,0.34238 0.260866,0.22826 0.407604,0.58695 0.163041,0.35869 0.163041,0.84782 0,0.44021 -0.130433,0.83151 -0.130433,0.3913 -0.374996,0.70108 -0.244562,0.29348 -0.603254,0.47282 -0.342387,0.16304 -0.766295,0.16304 z"
         style="font-style:normal;font-variant:normal;font-weight:bold;font-stretch:normal;font-family:'Poetsen One';-inkscape-font-specification:'Poetsen One Bold';fill:#a82d54;fill-opacity:1;stroke-width:0.26458341px"
         id="path5171" />
      <path
         d="m 100.27986,270.46871 q 0.19565,-0.68478 0.35869,-1.35325 0.17935,-0.66847 0.34239,-1.41846 0.17934,-0.76629 0.37499,-1.66302 0.21196,-0.91304 0.48913,-2.07063 0.0489,-0.22826 0.14674,-0.29348 0.0978,-0.0815 0.4239,-0.0815 0.24457,0 0.65217,0.0163 0.40761,0.0163 0.79891,0.11413 0.39129,0.0978 0.66847,0.29347 0.29347,0.19565 0.29347,0.53804 0,0.27717 -0.19565,0.89673 -0.19565,0.61956 -0.50543,1.41846 -0.30978,0.7826 -0.70108,1.64672 -0.37499,0.86412 -0.73368,1.63042 -0.3587,0.76629 -0.66848,1.35324 -0.30977,0.57065 -0.45651,0.7989 -0.13043,0.17935 -0.22826,0.21196 -0.0978,0.0326 -0.32608,0.0326 h -1.451073 q -0.342388,0 -0.570646,-0.11413 -0.211954,-0.13044 -0.358692,-0.32609 -0.146737,-0.19565 -0.244562,-0.44021 -0.09783,-0.26086 -0.179346,-0.53803 -0.472821,-1.63042 -0.831512,-2.78802 -0.342387,-1.1739 -0.58695,-1.9565 -0.244562,-0.7826 -0.3913,-1.23911 -0.146737,-0.47282 -0.228258,-0.71739 -0.08152,-0.26086 -0.114129,-0.34238 -0.03261,-0.0978 -0.03261,-0.13044 0.0163,-0.11412 0.163041,-0.24456 0.146738,-0.13043 0.374996,-0.13043 0.749991,0 1.271724,0.0652 0.538038,0.0489 0.880425,0.19565 0.358692,0.14673 0.538037,0.4076 0.19565,0.26087 0.277171,0.68477 0.0163,0.11413 0.06522,0.45652 0.04891,0.34239 0.09783,0.83151 0.06522,0.47282 0.146737,1.05977 0.08152,0.57065 0.146738,1.1576 0.08152,0.57064 0.146735,1.10868 0.0815,0.53804 0.14674,0.92934 z"
         style="font-style:normal;font-variant:normal;font-weight:bold;font-stretch:normal;font-family:'Poetsen One';-inkscape-font-specification:'Poetsen One Bold';fill:#a82d54;fill-opacity:1;stroke-width:0.26458341px"
         id="path5173" />
      <path
         d="m 105.03711,270.53393 q 0,-1.46738 1.32064,-2.29889 1.32063,-0.83151 3.89669,-0.89673 0.0163,-0.17935 0.0163,-0.29348 0.0163,-0.13043 0.0163,-0.30977 0,-0.52174 -0.19565,-0.83152 -0.19565,-0.30978 -0.81521,-0.30978 -0.34239,0 -0.55434,0.0978 -0.21196,0.0978 -0.34239,0.27717 -0.13043,0.16304 -0.21195,0.4076 -0.0815,0.24457 -0.14674,0.53804 -0.0326,0.14674 -0.14674,0.19565 -0.11413,0.0326 -0.35869,0.0326 -1.66302,0 -1.66302,-1.25542 0,-0.50543 0.22825,-0.96195 0.24457,-0.45651 0.70108,-0.7826 0.47282,-0.34238 1.1739,-0.53803 0.70108,-0.19565 1.63042,-0.19565 1.80976,0 2.62497,0.74999 0.81521,0.74999 0.81521,2.11954 0,0.17935 -0.0489,0.65217 -0.0326,0.45651 -0.0978,0.97825 -0.0489,0.50542 -0.0978,0.96194 -0.0326,0.45652 -0.0326,0.63586 0,0.40761 0.14673,0.58695 0.14674,0.16304 0.32609,0.22826 0.19565,0.0652 0.34238,0.0978 0.14674,0.0326 0.14674,0.16304 0,0.35869 -0.0978,0.73369 -0.0978,0.37499 -0.32609,0.68477 -0.21195,0.30978 -0.60325,0.50543 -0.375,0.19565 -0.92934,0.19565 -0.7826,0 -1.1739,-0.375 -0.3913,-0.37499 -0.52173,-1.04346 -0.3913,0.57064 -1.02716,0.99455 -0.61956,0.42391 -1.63042,0.42391 -0.48912,0 -0.92934,-0.11413 -0.4239,-0.11413 -0.74999,-0.375 -0.30978,-0.26086 -0.50543,-0.66847 -0.17934,-0.4239 -0.17934,-1.01085 z m 5.07059,-1.85868 q -0.42391,0 -0.83151,0.0652 -0.4076,0.0652 -0.73369,0.21195 -0.30978,0.13044 -0.50543,0.35869 -0.19565,0.22826 -0.19565,0.55434 0,0.375 0.22826,0.52174 0.24456,0.14674 0.52174,0.14674 0.26086,0 0.52173,-0.11413 0.26086,-0.11413 0.45651,-0.34239 0.21196,-0.24456 0.3587,-0.58695 0.14673,-0.34239 0.17934,-0.81521 z"
         style="font-style:normal;font-variant:normal;font-weight:bold;font-stretch:normal;font-family:'Poetsen One';-inkscape-font-specification:'Poetsen One Bold';fill:#a82d54;fill-opacity:1;stroke-width:0.26458341px"
         id="path5175" />
      <path
         d="m 116.58861,272.68607 q -1.01086,0 -1.45107,-0.53803 -0.44021,-0.53804 -0.44021,-1.77716 0,-0.19565 0.0163,-0.48912 0.0326,-0.29348 0.0652,-0.74999 0.0489,-0.47282 0.11413,-1.1576 0.0652,-0.68477 0.13043,-1.66302 0.0815,-0.97825 0.16304,-2.29889 0.0978,-1.32064 0.19565,-3.06518 0.0163,-0.35869 0.0815,-0.42391 0.0489,-0.0489 0.26087,-0.0489 h 0.63586 q 0.48913,0 0.81521,0.11413 0.32608,0.11413 0.52173,0.30978 0.19565,0.19565 0.27717,0.45651 0.0815,0.24457 0.0815,0.52174 0,0.32608 -0.0489,0.94564 -0.0326,0.60325 -0.0978,1.36955 -0.0652,0.76629 -0.13044,1.5978 -0.0652,0.83152 -0.13043,1.59781 -0.0652,0.74999 -0.11413,1.35325 -0.0326,0.60325 -0.0326,0.91303 0,0.42391 0.14674,0.60325 0.16304,0.17935 0.34239,0.26087 0.17934,0.0652 0.32608,0.0978 0.16304,0.0163 0.16304,0.0978 0,0.35869 -0.0815,0.71738 -0.0815,0.34239 -0.29347,0.63587 -0.21196,0.27717 -0.58695,0.45651 -0.3587,0.16304 -0.92934,0.16304 z"
         style="font-style:normal;font-variant:normal;font-weight:bold;font-stretch:normal;font-family:'Poetsen One';-inkscape-font-specification:'Poetsen One Bold';fill:#a82d54;fill-opacity:1;stroke-width:0.26458341px"
         id="path5177" />
    </g>
  </g>
</svg>
