<?xml version="1.0" encoding="UTF-8" standalone="no"?>
<!-- Created with Inkscape (http://www.inkscape.org/) -->

<svg
   xmlns:dc="http://purl.org/dc/elements/1.1/"
   xmlns:cc="http://creativecommons.org/ns#"
   xmlns:rdf="http://www.w3.org/1999/02/22-rdf-syntax-ns#"
   xmlns:svg="http://www.w3.org/2000/svg"
   xmlns="http://www.w3.org/2000/svg"
   xmlns:sodipodi="http://sodipodi.sourceforge.net/DTD/sodipodi-0.dtd"
   xmlns:inkscape="http://www.inkscape.org/namespaces/inkscape"
   width="30"
   height="40"
   id="svg2"
   version="1.1"
   inkscape:version="0.92.2 2405546, 2018-03-11"
   sodipodi:docname="hr.svg">
  <defs
     id="defs4">
    <clipPath
       clipPathUnits="userSpaceOnUse"
       id="clipPath916">
      <path
         style="fill:none;stroke:#000000;stroke-width:1px;stroke-linecap:butt;stroke-linejoin:miter;stroke-opacity:1"
         d="m 40.574602,1036.5631 -0.450605,-2.0612 -2.868308,-4.9218 c 0,0 -4.772971,-4.3089 -4.684583,-4.6183 0.08839,-0.3093 2.231806,-9.0377 2.740039,-9.1261 0.508233,-0.088 10.275145,-0.221 10.275145,-0.221 l 4.331029,7.2258 -4.550875,7.7156 -0.02106,2.0443 0.439777,2.9017 c 0,0 -5.038136,3.403 -5.060233,3.4914 -0.0221,0.088 -2.784233,6.607 -2.784233,6.607 l 2.591489,-8.4087 0.04226,-0.6063"
         id="path918"
         inkscape:connector-curvature="0" />
    </clipPath>
    <clipPath
       clipPathUnits="userSpaceOnUse"
       id="clipPath956">
      <path
         style="fill:none;stroke:#000000;stroke-width:1px;stroke-linecap:butt;stroke-linejoin:miter;stroke-opacity:1"
         d="m 80.25662,1007.4609 c 0.795495,-0.7071 13.965359,-3.0936 13.965359,-3.0936 l 6.098791,2.4749 c 0,0 -1.325821,4.1543 -1.679374,4.1543 -0.353553,0 -7.159456,6.4523 -7.159456,6.4523 l -11.22532,0.9723 z"
         id="path958"
         inkscape:connector-curvature="0" />
    </clipPath>
    <clipPath
       clipPathUnits="userSpaceOnUse"
       id="clipPath977">
      <path
         style="fill:none;stroke:#000000;stroke-width:1px;stroke-linecap:butt;stroke-linejoin:miter;stroke-opacity:1"
         d="m 45.519999,1003.4835 1.679379,6.3639 2.916815,-0.5303 0.972272,4.4194 10.16466,-3.8891 -4.596194,-12.19753 -12.109204,-2.2097 -7.513009,-0.442 3.447145,5.56853 3.889087,1.2375"
         id="path979"
         inkscape:connector-curvature="0" />
    </clipPath>
  </defs>
  <sodipodi:namedview
     id="base"
     pagecolor="#ffffff"
     bordercolor="#666666"
     borderopacity="1.0"
     inkscape:pageopacity="0.0"
     inkscape:pageshadow="2"
     inkscape:zoom="11.313709"
     inkscape:cx="21.750376"
     inkscape:cy="23.364907"
     inkscape:document-units="px"
     inkscape:current-layer="layer1"
     showgrid="false"
     inkscape:showpageshadow="false"
     inkscape:window-width="1920"
     inkscape:window-height="1025"
     inkscape:window-x="0"
     inkscape:window-y="0"
     inkscape:window-maximized="1"
     inkscape:snap-bbox="false"
     inkscape:bbox-nodes="true"
     inkscape:snap-global="false"
     inkscape:snap-nodes="false"
     inkscape:snap-others="false"
     inkscape:snap-object-midpoints="true"
     inkscape:bbox-paths="true"
     inkscape:snap-bbox-edge-midpoints="true"
     inkscape:snap-bbox-midpoints="true"
     inkscape:object-nodes="false"
     inkscape:snap-intersection-paths="false"
     inkscape:object-paths="true"
     inkscape:snap-center="true">
    <inkscape:grid
       type="xygrid"
       id="grid4156"
       empspacing="1"
       dotted="true" />
  </sodipodi:namedview>
  <metadata
     id="metadata7">
    <rdf:RDF>
      <cc:Work
         rdf:about="">
        <dc:format>image/svg+xml</dc:format>
        <dc:type
           rdf:resource="http://purl.org/dc/dcmitype/StillImage" />
        <dc:title />
      </cc:Work>
    </rdf:RDF>
  </metadata>
  <g
     inkscape:label="Calque 1"
     inkscape:groupmode="layer"
     id="layer1"
     transform="translate(0,-1012.3622)">
    <rect
       style="fill:#b2d36c;fill-opacity:1;fill-rule:evenodd;stroke-width:0.01327571"
       id="rect858"
       width="2.6016362"
       height="2.6016362"
       x="-6.6016359"
       y="-1015.9638"
       transform="scale(1,-1)" />
    <rect
       style="fill:#dbf397;fill-opacity:1;fill-rule:evenodd;stroke-width:0.01327571"
       id="rect858-3"
       width="2.6016362"
       height="2.6016362"
       x="-6.6016359"
       y="-1018.914"
       transform="scale(1,-1)" />
    <rect
       style="fill:#ffff36;fill-opacity:0.57835825;fill-rule:evenodd;stroke-width:0.01327571"
       id="rect858-3-6"
       width="2.6016362"
       height="2.6016362"
       x="-6.6016359"
       y="-1021.8973"
       transform="scale(1,-1)" />
    <g
       id="g983"
       transform="matrix(-0.65776777,0.63597636,-0.63597636,-0.65776777,753.49723,1652.4306)">
      <path
         transform="translate(27.875,-3)"
         clip-path="url(#clipPath916)"
         inkscape:connector-curvature="0"
         id="path814-5"
         d="m 50.260164,1035.5365 a 4.9833098,4.9833098 0 0 0 -4.9004,-4.9805 4.9833098,4.9833098 0 0 0 -4.880801,-4.0078 4.9833098,4.9833098 0 0 0 -0.332,0.02 v -0.041 a 2.9899974,2.9899974 0 0 1 -2.6582,-2.9688 2.9899974,2.9899974 0 0 1 2.9902,-2.9882 2.9899974,2.9899974 0 0 1 2.484401,1.3281 h 2.207 a 4.9833098,4.9833098 0 0 0 -4.691401,-3.3223 4.9833098,4.9833098 0 0 0 -4.9844,4.9824 4.9833098,4.9833098 0 0 0 4.6524,4.9668 v 0.039 a 2.9899974,2.9899974 0 0 1 0.332,-0.022 2.9899974,2.9899974 0 0 1 2.990201,2.9902 2.9899974,2.9899974 0 0 1 -2.990201,2.9903 2.9899974,2.9899974 0 0 1 -0.332,-0.024 v 0.055 c -0.6829,-1.5629 -2.1318,-2.7154 -3.8868,-2.9511 v 2.0214 c 1.3319,0.304 2.321,1.4947 2.3223,2.9122 1e-4,1.6515 -1.3387,2.9903 -2.9902,2.9902 -0.111,-10e-4 -0.2219,-0.01 -0.3321,-0.021 v 0.039 c -2.2853,0.1521 -4.126,1.8286 -4.5566,3.998 h 2.0684 c 0.3672,-1.0645 1.313,-1.8688 2.4882,-2 v -0.041 c 0.1105,0.01 0.2212,0.017 0.3321,0.02 2.7522,-5e-4 4.983,-2.2321 4.9824,-4.9843 0,-0.01 0,-0.017 0,-0.025 a 4.9833098,4.9833098 0 0 0 4.781301,-3.961 2.9899974,2.9899974 0 0 1 2.9141,2.9864 2.9899974,2.9899974 0 0 1 -2.9903,2.9902 2.9899974,2.9899974 0 0 1 -0.332,-0.021 v 0.039 a 4.9833098,4.9833098 0 0 0 -4.652401,4.9668 4.9833098,4.9833098 0 0 0 4.984401,4.9824 4.9833098,4.9833098 0 0 0 4.6914,-3.3223 h -2.207 a 2.9899974,2.9899974 0 0 1 -2.4844,1.3281 2.9899974,2.9899974 0 0 1 -2.9902,-2.9882 2.9899974,2.9899974 0 0 1 2.6562,-2.9688 v -0.041 a 4.9833098,4.9833098 0 0 0 0.332,0.02 4.9833098,4.9833098 0 0 0 4.9824,-4.9844 z m -9.976501,10.6347 h -0.024 v 0.053 c 0.01,-0.018 0.017,-0.034 0.024,-0.053 z"
         style="opacity:1;fill:#dbf397;fill-opacity:1;stroke:none;stroke-width:5.53700781;stroke-linecap:round;stroke-linejoin:round;stroke-miterlimit:4;stroke-dasharray:none;stroke-dashoffset:0;stroke-opacity:1;paint-order:stroke markers fill" />
      <path
         transform="matrix(0,1,1,0,-923.22685,985.27541)"
         clip-path="url(#clipPath977)"
         inkscape:connector-curvature="0"
         id="path814-9"
         d="m 56.270571,1007.1639 a 4.9833098,4.9833098 0 0 0 -4.9004,-4.9805 4.9833098,4.9833098 0 0 0 -4.8808,-4.00781 4.9833098,4.9833098 0 0 0 -0.332,0.02 v -0.041 a 2.9899974,2.9899974 0 0 1 -2.6582,-2.9688 2.9899974,2.9899974 0 0 1 2.9902,-2.9882 2.9899974,2.9899974 0 0 1 2.4844,1.3281 h 2.207 a 4.9833098,4.9833098 0 0 0 -4.6914,-3.3223 4.9833098,4.9833098 0 0 0 -4.984401,4.9824 4.9833098,4.9833098 0 0 0 4.652401,4.96681 v 0.039 a 2.9899974,2.9899974 0 0 1 0.332,-0.022 2.9899974,2.9899974 0 0 1 2.9902,2.9902 2.9899974,2.9899974 0 0 1 -2.9902,2.9903 2.9899974,2.9899974 0 0 1 -0.332,-0.024 v 0.055 c -0.6829,-1.5629 -2.1318,-2.7154 -3.8868,-2.9511 v 2.0214 c 1.3319,0.304 2.321,1.4947 2.3223,2.9122 10e-5,1.6515 -1.3387,2.9903 -2.990201,2.9902 -0.111,0 -0.2219,-0.01 -0.3321,-0.021 v 0.039 c -2.2853,0.1521 -4.126,1.8286 -4.5566,3.998 h 2.0684 c 0.3672,-1.0645 1.313,-1.8688 2.4882,-2 v -0.041 c 0.1105,0.01 0.2212,0.017 0.3321,0.02 2.752201,-5e-4 4.983001,-2.2321 4.982401,-4.9843 0,-0.01 0,-0.017 0,-0.025 a 4.9833098,4.9833098 0 0 0 4.7813,-3.961 2.9899974,2.9899974 0 0 1 2.9141,2.9864 2.9899974,2.9899974 0 0 1 -2.9903,2.9902 2.9899974,2.9899974 0 0 1 -0.332,-0.021 v 0.039 a 4.9833098,4.9833098 0 0 0 -4.6524,4.9668 4.9833098,4.9833098 0 0 0 4.9844,4.9824 4.9833098,4.9833098 0 0 0 4.6914,-3.3223 h -2.207 a 2.9899974,2.9899974 0 0 1 -2.4844,1.3281 2.9899974,2.9899974 0 0 1 -2.9902,-2.9882 2.9899974,2.9899974 0 0 1 2.6562,-2.9688 v -0.041 a 4.9833098,4.9833098 0 0 0 0.332,0.02 4.9833098,4.9833098 0 0 0 4.9824,-4.9844 z m -9.9765,10.6347 h -0.024 v 0.053 c 0.01,-0.018 0.017,-0.034 0.024,-0.053 z"
         style="opacity:1;fill:#dbf397;fill-opacity:1;stroke:none;stroke-width:5.53700781;stroke-linecap:round;stroke-linejoin:round;stroke-miterlimit:4;stroke-dasharray:none;stroke-dashoffset:0;stroke-opacity:1;paint-order:stroke markers fill" />
    </g>
  </g>
  <g
     inkscape:groupmode="layer"
     id="layer2"
     inkscape:label="feuille">
    <path
       style="fill:#b2d36c;fill-opacity:1;stroke-width:0.14160301"
       d="M 24.629403,7.7260019 C 24.5019,7.6143269 24.189968,7.6367959 24.098018,7.8480716 23.928273,8.2565125 23.365504,9.5542819 23.049105,10.23402 c -0.665976,1.430619 -1.023548,2.165592 -1.565989,3.116039 -0.688456,1.206134 -1.178175,2.223457 -1.69455,2.990849 -0.768103,1.141322 -1.475367,2.041332 -2.303212,2.734484 l -1.013784,0.866944 -0.158314,-0.51442 c -0.36626,-1.318228 -1.802272,-2.685404 -3.404811,-3.241672 -0.926999,-0.321767 -1.297757,-0.07444 -1.46986,0.980374 l -0.11832,0.725173 -1.014306,-0.343525 C 9.5131029,17.279831 9.1069737,17.22376 8.4457947,17.291548 l -0.8458879,0.08631 -0.011185,0.532704 c -0.010291,0.482251 -0.050108,0.535106 -0.4185064,0.557859 -0.2240733,0.01384 -0.6269799,0.173783 -0.895302,0.355267 -0.8717079,0.589659 -0.937466,1.140661 -0.2298937,1.926236 0.3914431,0.434695 1.9681062,1.551826 2.0979258,1.4865 0.021341,-0.01137 0.2348732,0.0426 0.4737392,0.119022 0.238764,0.07643 0.8666232,0.16018 0.717826,0.228083 -0.22001,0.100757 0.1557032,0.13935 -0.403456,0.35875 -0.377975,0.14829 -0.9388131,0.328803 -1.2464472,0.401003 -0.9508395,0.223345 -1.7226731,0.835486 -2.3414793,1.856975 -0.4485129,0.740356 -0.3493493,1.002742 0.5730174,1.515558 l 0.817883,0.454646 -0.2262572,0.3937 c -0.7153974,1.245166 -0.8386976,1.648033 -0.7080229,2.313543 0.1300342,0.661642 0.5373979,1.127015 0.9634851,1.100699 0.1135827,-0.007 0.3050635,0.07433 0.4256616,0.180904 0.3609476,0.318957 1.1756845,0.34468 1.9903525,0.06272 0.6293702,-0.217812 0.7738152,-0.229638 0.9185763,-0.07577 0.09438,0.100573 0.295863,0.175195 0.447374,0.165836 0.15151,-0.0094 0.376711,0.07292 0.500565,0.181889 0.40355,0.356601 0.903118,0.1963 1.504981,-0.483094 0.310784,-0.350806 0.585807,-0.704152 0.611159,-0.78517 0.12702,-0.405902 0.933915,-1.970319 1.018952,-1.975572 0.0539,-0.0033 0.184545,0.210829 0.290597,0.475992 0.358085,0.895528 1.667861,1.857216 3.006198,2.207479 0.280785,0.07383 1.066472,-0.59788 1.048095,-0.895414 -0.0063,-0.103201 0.2285,-0.479097 0.521996,-0.835367 0.675988,-0.820829 0.728378,-1.129148 0.383556,-2.257638 -0.312439,-1.022685 -0.277556,-1.142462 0.450433,-1.544706 0.61948,-0.342238 0.69894,-0.903402 0.236543,-1.670958 -0.539439,-0.89565 -1.01327,-1.595271 -1.895969,-2.126066 -0.35342,-0.197091 -0.576228,-0.354152 -1.17045,-0.592474 -0.0063,-0.101596 0.350402,-0.516883 0.725631,-0.829711 0.375229,-0.312827 1.019309,-1.107971 1.513205,-1.743398 1.313962,-1.690915 1.436374,-1.639339 4.341219,-7.425314 0.337137,-0.671661 0.853598,-2.229285 1.009025,-2.5499759 0.170081,-0.4419262 0.166459,-0.557322 -0.01143,-0.7365982 z"
       id="path827"
       inkscape:connector-curvature="0"
       sodipodi:nodetypes="ccsscccccccccccsccccccccccccscccscccsccsccccccsccccc" />
  </g>
</svg>
