<?xml version="1.0" encoding="UTF-8" standalone="no"?>
<!-- Created with Inkscape (http://www.inkscape.org/) -->

<svg
   xmlns:dc="http://purl.org/dc/elements/1.1/"
   xmlns:cc="http://creativecommons.org/ns#"
   xmlns:rdf="http://www.w3.org/1999/02/22-rdf-syntax-ns#"
   xmlns:svg="http://www.w3.org/2000/svg"
   xmlns="http://www.w3.org/2000/svg"
   xmlns:sodipodi="http://sodipodi.sourceforge.net/DTD/sodipodi-0.dtd"
   xmlns:inkscape="http://www.inkscape.org/namespaces/inkscape"
   width="30"
   height="40"
   id="svg2"
   version="1.1"
   inkscape:version="0.92.1 r"
   sodipodi:docname="hr.svg">
  <defs
     id="defs4" />
  <sodipodi:namedview
     id="base"
     pagecolor="#ffffff"
     bordercolor="#666666"
     borderopacity="1.0"
     inkscape:pageopacity="0.0"
     inkscape:pageshadow="2"
     inkscape:zoom="32"
     inkscape:cx="10.664656"
     inkscape:cy="15.525653"
     inkscape:document-units="px"
     inkscape:current-layer="layer1"
     showgrid="true"
     inkscape:showpageshadow="false"
     inkscape:window-width="1920"
     inkscape:window-height="1031"
     inkscape:window-x="0"
     inkscape:window-y="25"
     inkscape:window-maximized="1"
     inkscape:snap-bbox="true"
     inkscape:bbox-nodes="true">
    <inkscape:grid
       type="xygrid"
       id="grid4156"
       empspacing="1"
       dotted="true" />
  </sodipodi:namedview>
  <metadata
     id="metadata7">
    <rdf:RDF>
      <cc:Work
         rdf:about="">
        <dc:format>image/svg+xml</dc:format>
        <dc:type
           rdf:resource="http://purl.org/dc/dcmitype/StillImage" />
        <dc:title />
      </cc:Work>
    </rdf:RDF>
  </metadata>
  <g
     inkscape:label="Calque 1"
     inkscape:groupmode="layer"
     id="layer1"
     transform="translate(0,-1012.3622)">
    <path
       style="opacity:1;fill:#de8787;fill-opacity:1;stroke:none;stroke-width:5.53700781;stroke-linecap:round;stroke-linejoin:round;stroke-miterlimit:4;stroke-dasharray:none;stroke-dashoffset:0;stroke-opacity:1;paint-order:stroke markers fill"
       d="M 16.994141 13 A 4.9833098 4.9833098 0 0 0 12.013672 17.900391 A 4.9833098 4.9833098 0 0 0 8.0058594 22.78125 A 4.9833098 4.9833098 0 0 0 8.0253906 23.113281 L 7.984375 23.113281 A 2.9899974 2.9899974 0 0 1 5.015625 25.771484 A 2.9899974 2.9899974 0 0 1 2.0273438 22.78125 A 2.9899974 2.9899974 0 0 1 3.3554688 20.296875 L 3.3554688 18.089844 A 4.9833098 4.9833098 0 0 0 0.033203125 22.78125 A 4.9833098 4.9833098 0 0 0 5.015625 27.765625 A 4.9833098 4.9833098 0 0 0 9.9824219 23.113281 L 10.021484 23.113281 A 2.9899974 2.9899974 0 0 1 10 22.78125 A 2.9899974 2.9899974 0 0 1 12.990234 19.791016 A 2.9899974 2.9899974 0 0 1 15.980469 22.78125 A 2.9899974 2.9899974 0 0 1 15.957031 23.113281 L 16.011719 23.113281 C 14.448739 23.796096 13.29629 25.245079 13.060547 27 L 15.082031 27 C 15.385949 25.668136 16.576679 24.679017 17.994141 24.677734 C 19.645656 24.677603 20.984506 26.016454 20.984375 27.667969 C 20.983382 27.778959 20.976171 27.889808 20.962891 28 L 21.001953 28 C 21.154071 30.285383 22.830568 32.126058 25 32.556641 L 25 30.488281 C 23.935449 30.121055 23.131219 29.175192 23 28 L 22.958984 28 C 22.969184 27.889571 22.975706 27.778833 22.978516 27.667969 C 22.978026 24.915694 20.746416 22.684959 17.994141 22.685547 C 17.985476 22.685551 17.977404 22.687452 17.96875 22.6875 A 4.9833098 4.9833098 0 0 0 14.007812 17.90625 A 2.9899974 2.9899974 0 0 1 16.994141 14.992188 A 2.9899974 2.9899974 0 0 1 19.984375 17.982422 A 2.9899974 2.9899974 0 0 1 19.962891 18.314453 L 20.001953 18.314453 A 4.9833098 4.9833098 0 0 0 24.96875 22.966797 A 4.9833098 4.9833098 0 0 0 29.951172 17.982422 A 4.9833098 4.9833098 0 0 0 26.628906 13.291016 L 26.628906 15.498047 A 2.9899974 2.9899974 0 0 1 27.957031 17.982422 A 2.9899974 2.9899974 0 0 1 24.96875 20.972656 A 2.9899974 2.9899974 0 0 1 22 18.314453 L 21.958984 18.314453 A 4.9833098 4.9833098 0 0 0 21.978516 17.982422 A 4.9833098 4.9833098 0 0 0 16.994141 13 z M 27.628906 22.976562 L 27.628906 23 L 27.681641 23 C 27.663361 22.993297 27.647299 22.983065 27.628906 22.976562 z "
       transform="translate(0,1012.3622)"
       id="path814" />
  </g>
</svg>
